<svg viewBox="0 0 84 29" version="1.1" xmlns="http://www.w3.org/2000/svg" xmlns:xlink="http://www.w3.org/1999/xlink">
    <desc>X-Team Logo</desc>
    <defs></defs>
    <g id="Page-1" stroke="none" stroke-width="1" fill="none" fill-rule="evenodd">
        <g id="X-team--Logo" fill="#34323B">
            <g id="o-header">
                <g id="a---X-team-Logo">
                    <path d="M64.5150545,9.58909756 L64.5150545,9.58626829 L58.1671537,18.3619512 L60.0942942,18.3619512 L61.1168727,16.9756098 L64.6608397,16.9756098 L64.9767074,18.3513415 L66.7934678,18.3513415 L64.5233851,9.57707317 L64.5150545,9.58909756 Z M62.2949554,15.3784878 L63.818757,13.313122 L64.2936,15.3784878 L62.2949554,15.3784878 Z M76.2389554,9.48936585 L72.7574678,15.8106585 L69.8785587,9.57212195 L67.3474512,18.3845854 L69.1413025,18.3845854 L70.3152198,14.2057561 L72.6588893,18.8995122 L75.3489719,14.2382927 L76.1327405,18.3081951 L77.9814347,18.283439 L76.3333686,10.107561 L76.2389554,9.48936585 Z M41.6087405,14.9965366 L45.1818645,15.0043171 L45.6893355,13.4517561 L42.1162116,13.4439756 L41.6087405,14.9965366 Z M42.5139967,10.6026829 L41.2866248,9.43773171 L37.975914,12.728878 L36.5291702,9.49714634 L34.8720793,10.4067561 L36.6555174,14.0423659 L33.0060298,17.5945122 L34.3007405,18.6540732 L37.3483438,15.5489512 L38.6333355,18.5960732 L40.3494347,17.850561 L38.6805421,14.2474878 L42.5139967,10.6026829 Z M54.4628231,15.0014878 L58.2331041,15.0106829 L58.7016992,13.424878 L54.9314182,13.4149756 L55.4145917,11.7350976 L59.7069223,11.7457073 L60.1769058,10.136561 L54.1087736,10.1217073 L51.7213686,18.3456829 L57.3708893,18.330122 L57.8401785,16.7202683 L53.9546579,16.7400732 L54.4628231,15.0014878 Z M53.0209388,10.1195854 L46.291914,10.1026098 L45.8087405,11.7711707 L48.2808397,11.7768293 L46.375914,18.3329512 L48.1628231,18.3371951 L50.0670545,11.7817805 L52.5384595,11.787439 L53.0209388,10.1195854 Z M81.4233521,7.9127561 C80.3639802,7.9127561 79.5302281,8.77214634 79.5302281,9.80341463 C79.5302281,10.8346829 80.3542612,11.6834634 81.4122446,11.6834634 C82.4709223,11.6834634 83.3060628,10.8240732 83.3060628,9.79280488 C83.3060628,8.76153659 82.4820298,7.9127561 81.4233521,7.9127561 Z M81.4122446,11.5377561 C80.4264595,11.5377561 79.6864264,10.7618293 79.6864264,9.80341463 C79.6864264,8.845 80.4320132,8.05846341 81.4233521,8.05846341 C82.408443,8.05846341 83.1491702,8.83439024 83.1491702,9.79280488 C83.1491702,10.7512195 82.4035835,11.5377561 81.4122446,11.5377561 Z M82.2522446,9.34507317 C82.2522446,9.00626829 81.9551207,8.79265854 81.5483107,8.79265854 L80.6923438,8.79265854 L80.6923438,10.698878 L80.9172694,10.698878 L80.9172694,9.93356098 L81.4698645,9.93356098 L82.0752198,10.698878 L82.3667901,10.698878 L81.7308893,9.89678049 C82.0384264,9.8394878 82.2522446,9.65770732 82.2522446,9.34507317 Z M80.9172694,9.72490244 L80.9172694,9.00626829 L81.5372033,9.00626829 C81.8350215,9.00626829 82.0176,9.13641463 82.0176,9.35497561 C82.0176,9.60041463 81.7989223,9.72490244 81.5115174,9.72490244 L80.9172694,9.72490244 Z M21.6286116,13.5373415 L6.23856198,29 L0.000347107438,22.867561 L8.73704132,13.5896829 L1.54705785,6.41041463 L7.96646281,0 L21.6286116,13.5373415 Z M16.0812793,20.9230049 L22.5006843,14.5132976 L28.7666678,20.7695171 L22.3472628,27.1799317 L16.0812793,20.9230049 Z M16.1334843,6.20423171 L22.3467074,0.000353658537 L28.7661124,6.41006098 L22.5528893,12.6146463 L16.1334843,6.20423171 Z"></path>
                </g>
            </g>
        </g>
    </g>
</svg>
