<?xml version="1.0" standalone="no"?>
<!DOCTYPE svg PUBLIC "-//W3C//DTD SVG 20010904//EN"
 "http://www.w3.org/TR/2001/REC-SVG-20010904/DTD/svg10.dtd">
<svg version="1.0" xmlns="http://www.w3.org/2000/svg"
 width="854.000000pt" height="478.000000pt" viewBox="0 0 854.000000 478.000000"
 preserveAspectRatio="xMidYMid meet">

<g transform="translate(0.000000,478.000000) scale(0.100000,-0.100000)"
fill="#000000" stroke="none">
<path d="M10 2380 l0 -2380 4158 0 c2666 0 4162 4 4172 10 12 8 12 10 1 10 -9
0 -7 6 8 19 16 14 18 21 9 24 -8 3 -6 6 5 6 10 1 16 5 13 10 -4 5 0 12 6 14
10 4 10 6 -1 6 -7 1 0 13 18 30 21 19 27 31 19 34 -10 4 -10 6 0 6 7 1 10 6 7
11 -3 6 2 10 12 10 15 0 16 2 3 10 -13 8 -12 10 3 10 10 0 15 5 12 10 -3 6 0
10 7 10 9 0 9 3 -2 10 -12 8 -10 10 10 10 20 0 22 2 10 10 -13 9 -13 10 0 10
13 0 13 1 0 10 -12 8 -10 10 10 10 20 0 22 2 10 10 -11 7 -11 10 -2 10 7 0 10
4 7 10 -3 5 2 10 12 11 10 0 13 3 6 6 -10 3 -9 8 2 19 12 12 14 84 15 458 l0
443 -61 6 c-165 18 -394 132 -623 311 -33 25 -63 46 -68 46 -4 0 -11 12 -14
27 -7 28 -103 150 -169 216 -32 32 -35 40 -35 93 0 75 -19 60 -30 -23 -7 -58
-7 -58 -9 -12 -3 105 53 201 138 236 58 25 184 21 256 -7 115 -45 265 -149
192 -133 -21 4 -21 4 -3 -11 10 -8 23 -13 29 -9 6 3 7 1 4 -4 -4 -6 37 -48 91
-94 53 -46 143 -126 200 -177 l102 -94 0 1566 0 1566 -4265 0 -4265 0 0 -2380z
m5634 1635 c38 -61 55 -182 37 -268 -17 -80 -51 -150 -67 -136 -36 29 -66 405
-36 442 19 22 33 14 66 -38z m1117 -40 c479 -27 630 -52 769 -126 181 -97 271
-227 288 -417 l7 -75 45 -16 c28 -10 68 -38 107 -76 49 -48 64 -71 77 -114 20
-69 20 -100 0 -151 -12 -29 -27 -46 -55 -60 -48 -25 -64 -25 -82 0 -8 11 -17
17 -20 13 -4 -3 -7 -1 -7 4 0 6 -33 16 -72 23 -40 6 -91 15 -112 20 -45 10
-55 6 -58 -18 -1 -9 -4 10 -8 43 -6 57 -7 56 -8 -32 -2 -72 3 -109 22 -170 55
-181 56 -196 26 -257 -11 -23 -43 -66 -70 -96 -50 -54 -52 -43 -4 27 13 20 24
40 24 45 0 10 -96 -37 -105 -52 -9 -15 -83 -12 -109 5 -13 9 -56 25 -96 36
-71 19 -130 44 -140 59 -3 4 -21 17 -40 29 -32 19 -50 21 -195 21 -165 0 -709
32 -850 50 -256 32 -318 74 -346 235 -19 113 -2 368 42 600 17 92 19 116 9
146 -7 20 -11 55 -8 79 l4 42 -24 -28 c-21 -26 -22 -26 -12 -5 23 46 104 122
164 156 55 30 139 58 206 68 62 10 391 6 631 -8z m-1252 -137 c-1 -103 16
-203 45 -273 9 -20 11 -33 6 -30 -26 16 -74 251 -65 315 2 14 4 40 4 58 1 17
3 32 6 32 2 0 4 -46 4 -102z m2765 63 c15 -16 16 -25 6 -63 -26 -98 -134 -251
-275 -392 -85 -85 -110 -94 -118 -43 -13 89 79 288 186 403 99 106 164 137
201 95z m-2529 -213 c-12 -84 -47 -253 -57 -280 -6 -15 -14 -25 -19 -22 -16 9
-10 108 11 187 19 71 55 157 67 157 3 0 2 -19 -2 -42z m-305 -317 c-5 -11 -15
-32 -21 -47 -7 -21 -12 -25 -18 -15 -8 12 -18 -18 -36 -114 -5 -28 5 -102 20
-150 3 -11 -2 -6 -11 10 -36 61 -12 293 28 269 6 -4 9 -1 6 7 -3 8 4 24 15 37
25 27 31 28 17 3z m160 -55 c-7 -38 -16 -63 -22 -60 -11 7 -2 89 14 117 17 33
21 9 8 -57z m-58 -412 c26 -13 49 -24 51 -24 3 0 10 20 16 44 6 25 15 47 20
50 4 3 11 -47 14 -112 7 -147 26 -201 110 -308 97 -122 192 -175 349 -195 43
-5 120 -18 170 -29 51 -11 111 -20 133 -21 36 -2 35 -3 -15 -9 l-55 -7 60 -3
c33 -1 49 -5 35 -7 -43 -8 -323 24 -315 36 2 4 -10 5 -27 3 -18 -3 -28 -1 -25
5 3 5 -10 10 -29 10 -19 1 -73 21 -122 45 -182 90 -301 262 -302 434 0 41 -1
42 -56 65 -61 24 -144 95 -144 122 0 11 14 1 42 -29 23 -25 64 -57 90 -70z
m-4462 -152 c36 -27 46 -27 53 -3 4 16 18 20 97 26 51 4 157 4 236 0 l143 -7
7 -33 c3 -18 1 -42 -5 -54 -10 -18 -21 -21 -74 -21 -95 0 -102 -8 -102 -125 0
-117 7 -125 102 -125 53 0 64 -3 74 -21 6 -12 8 -36 5 -54 l-7 -33 -144 -7
c-164 -8 -335 1 -335 18 0 8 -4 7 -12 -1 -7 -7 -35 -12 -64 -12 l-51 0 -7 72
c-3 39 -11 77 -17 85 -13 15 -185 18 -208 4 -10 -6 -17 -35 -20 -83 l-6 -73
-55 0 -55 0 -3 175 c-3 194 0 228 27 261 24 30 82 38 254 35 123 -2 140 -5
167 -24z m1213 21 c61 -5 70 -9 78 -31 l9 -24 38 28 37 29 177 0 177 0 35 -34
35 -34 35 31 c30 26 45 31 112 37 43 4 125 5 182 2 85 -4 110 -9 133 -26 35
-26 46 -26 54 -1 6 18 14 21 58 18 l52 -3 5 -162 c4 -113 9 -166 18 -175 9 -9
60 -14 175 -16 131 -2 164 -6 174 -18 10 -14 12 -14 20 1 8 13 37 17 169 23
131 6 159 10 159 22 0 20 -41 27 -159 29 -98 1 -98 1 -132 35 -33 33 -34 36
-34 120 0 80 2 88 28 116 26 29 30 30 137 35 61 3 155 2 210 -2 l100 -8 3 -40
c1 -22 -1 -45 -6 -52 -5 -7 -63 -14 -165 -19 -87 -4 -160 -11 -163 -16 -3 -5
0 -15 6 -23 9 -11 35 -15 96 -15 118 0 178 -15 209 -52 22 -26 25 -39 25 -101
0 -84 -22 -132 -67 -144 -15 -5 -113 -8 -216 -8 -172 0 -189 2 -199 18 -8 16
-11 16 -21 4 -9 -11 -49 -16 -172 -20 -201 -6 -257 1 -293 36 l-26 27 -28 -27
c-33 -31 -88 -41 -228 -42 -133 0 -185 10 -220 44 l-29 28 -35 -30 c-28 -26
-46 -32 -106 -38 -39 -4 -121 -4 -182 0 -105 7 -114 9 -140 35 -24 25 -28 36
-28 88 0 32 -3 100 -6 150 l-7 92 -71 0 c-115 0 -116 -1 -116 -180 0 -81 -3
-155 -6 -164 -5 -12 -20 -16 -59 -16 l-53 0 -4 165 c-2 115 -7 168 -16 177 -7
7 -45 15 -85 18 l-72 5 -3 52 -3 52 78 4 c157 6 260 7 326 0z m2562 -168 c33
-7 157 -49 275 -93 118 -43 228 -82 244 -86 16 -4 41 -20 57 -36 16 -16 29
-28 29 -27 0 1 -4 17 -10 36 -9 31 -8 33 13 27 42 -10 199 -100 242 -138 48
-42 95 -126 95 -170 0 -75 -81 -92 -297 -62 -35 5 -53 1 -103 -25 -69 -36 -80
-38 -56 -12 17 19 14 22 -136 94 -240 117 -484 293 -556 402 -16 24 -32 41
-36 37 -4 -3 -4 1 -1 10 10 26 85 58 135 58 25 0 72 -7 105 -15z m-248 -147
c-3 -8 -6 -5 -6 6 -1 11 2 17 5 13 3 -3 4 -12 1 -19z m153 -233 c33 -41 87
-95 120 -121 33 -26 60 -49 60 -51 0 -11 -92 64 -142 115 -59 60 -168 206
-168 225 0 6 16 -12 35 -41 19 -29 62 -86 95 -127z m1778 48 c-16 -2 -40 -2
-55 0 -16 2 -3 4 27 4 30 0 43 -2 28 -4z m140 -10 c-10 -2 -26 -2 -35 0 -10 3
-2 5 17 5 19 0 27 -2 18 -5z m585 -10 c-7 -2 -21 -2 -30 0 -10 3 -4 5 12 5 17
0 24 -2 18 -5z m-70 -10 c-7 -2 -19 -2 -25 0 -7 3 -2 5 12 5 14 0 19 -2 13 -5z
m-193 -26 c120 -23 212 -48 258 -70 60 -28 136 -99 160 -149 27 -59 44 -168
40 -258 l-3 -75 -40 -7 c-22 -4 -137 -7 -255 -6 -118 1 -237 1 -263 0 -87 -1
-149 -59 -161 -149 -13 -91 -17 -103 -36 -103 -10 0 -22 9 -25 20 -3 11 -11
20 -17 20 -5 0 -8 7 -4 15 3 8 -5 25 -19 39 -15 15 -21 28 -15 31 6 4 7 11 4
17 -4 7 -2 8 5 4 6 -4 9 -12 6 -17 -3 -5 1 -6 10 -2 16 6 17 15 2 81 -2 9 3
28 12 42 15 23 15 24 -3 17 -11 -4 -39 -12 -63 -17 -126 -29 -243 74 -243 212
0 49 -2 56 -18 51 -12 -3 -25 5 -38 23 -22 32 -102 110 -141 140 -16 11 -56
28 -91 38 l-64 17 -61 -58 c-75 -70 -86 -89 -98 -162 -5 -31 -16 -87 -24 -126
-19 -91 -19 -169 -1 -184 8 -7 17 -43 21 -89 10 -117 33 -224 67 -320 73 -208
232 -465 305 -493 13 -5 23 -15 23 -23 0 -18 109 -88 188 -120 81 -32 154 -46
256 -47 73 -1 77 -2 36 -9 -69 -13 -209 6 -303 40 -90 33 -214 108 -210 128 2
7 -4 12 -12 12 -37 0 -149 130 -226 261 -83 142 -141 331 -158 516 -6 63 -15
111 -25 125 -22 31 -20 121 3 235 52 252 185 378 436 412 108 15 694 6 785
-12z m-1918 -245 c-9 -3 -102 46 -102 54 0 2 25 -8 56 -23 30 -15 51 -29 46
-31z m445 -98 c-3 -3 -12 -4 -19 -1 -8 3 -5 6 6 6 11 1 17 -2 13 -5z m2114
-241 c18 -27 69 -88 113 -137 89 -99 72 -102 -20 -4 -69 74 -148 188 -131 188
2 0 19 -21 38 -47z m-191 -53 c13 -20 12 -138 0 -220 -25 -162 -68 -279 -130
-349 -11 -13 -20 -27 -20 -32 0 -17 -105 -109 -131 -114 -15 -4 -33 -13 -39
-20 -16 -20 -113 -47 -185 -52 -89 -6 -103 -6 -185 1 -123 10 -136 12 -161 29
-13 10 -34 17 -47 17 -13 0 -20 4 -17 10 3 6 1 10 -6 10 -7 0 -21 8 -32 18
-15 12 -18 13 -13 2 4 -8 -1 -4 -13 10 -26 32 -33 60 -16 60 8 0 17 -5 20 -11
9 -13 54 -3 121 26 70 31 109 94 105 169 -6 118 -4 170 7 174 18 6 14 43 -5
58 -10 7 -14 16 -9 21 5 4 11 2 13 -4 8 -22 23 -14 23 12 0 31 35 123 58 153
36 47 75 52 375 49 234 -2 279 -4 287 -17z m-1152 -34 c36 -19 69 -87 87 -178
14 -77 24 -373 12 -385 -4 -3 -17 3 -30 15 -13 12 -29 22 -35 22 -7 0 -11 4
-9 8 1 5 -13 23 -30 41 -18 18 -33 39 -33 47 0 9 -11 30 -25 48 -14 18 -25 42
-25 54 0 11 -5 22 -10 24 -6 2 -13 21 -17 43 -3 22 -11 47 -18 55 -14 19 -38
100 -31 107 3 3 1 14 -5 25 -15 27 -4 63 23 76 33 15 114 14 146 -2z m1775
-240 c40 -18 98 -42 129 -52 32 -9 56 -19 54 -21 -7 -7 -119 28 -184 58 -67
30 -202 117 -202 129 0 5 29 -11 65 -36 36 -24 98 -59 138 -78z m257 -86 c20
-6 21 -8 5 -8 -11 0 -29 3 -40 8 -25 11 1 11 35 0z m-1285 -540 c-16 -4 -149
-7 -295 -7 -157 0 -232 3 -185 7 115 9 516 9 480 0z m-252 -167 c-7 -2 -19 -2
-25 0 -7 3 -2 5 12 5 14 0 19 -2 13 -5z"/>
<path d="M6020 3756 c-93 -25 -151 -80 -185 -176 -42 -114 -82 -455 -72 -603
4 -56 13 -93 31 -132 28 -57 53 -78 119 -101 95 -34 556 -68 917 -69 l245 0
60 30 c72 36 95 72 119 183 43 201 70 612 45 679 -24 65 -95 113 -201 138
-206 46 -962 83 -1078 51z m10 -131 c0 -10 -11 -15 -35 -15 -32 0 -35 -2 -35
-30 0 -21 -5 -30 -16 -30 -13 0 -15 7 -10 31 3 17 6 38 6 45 0 10 13 14 45 14
33 0 45 -4 45 -15z m1187 -59 c0 -1 -1 -22 -4 -48 -5 -40 -9 -48 -26 -48 -17
0 -19 5 -14 35 6 34 5 35 -29 35 -27 0 -34 4 -34 20 0 17 5 18 53 13 28 -3 53
-6 54 -7z m-902 -112 c95 -45 131 -203 73 -318 -41 -83 -99 -126 -171 -128
-180 -3 -243 269 -96 409 19 18 45 36 59 42 38 15 98 13 135 -5z m555 -24 c43
-12 93 -61 114 -112 24 -57 20 -153 -8 -213 -73 -158 -256 -178 -334 -37 -67
121 -15 300 102 353 47 21 76 23 126 9z m-980 -510 c0 -27 3 -30 30 -30 20 0
30 -5 30 -15 0 -11 -12 -15 -45 -15 -40 0 -45 2 -45 23 0 33 11 67 21 67 5 0
9 -13 9 -30z m1248 -82 l-3 -43 -52 -3 c-42 -2 -53 0 -53 12 0 10 12 16 38 18
32 3 37 7 40 31 2 16 9 27 18 27 12 0 14 -10 12 -42z"/>
<path d="M6173 2313 c9 -2 23 -2 30 0 6 3 -1 5 -18 5 -16 0 -22 -2 -12 -5z"/>
<path d="M6258 2303 c12 -2 32 -2 45 0 12 2 2 4 -23 4 -25 0 -35 -2 -22 -4z"/>
<path d="M1124 2647 c-2 -7 -3 -62 -2 -123 l3 -109 69 -3 c49 -2 75 1 92 13
23 14 24 21 24 110 0 86 -2 95 -22 109 -29 21 -156 22 -164 3z"/>
<path d="M783 2634 c-9 -25 16 -34 93 -34 53 0 75 4 85 16 20 24 -5 34 -94 34
-62 0 -79 -3 -84 -16z"/>
<path d="M2532 2644 c-20 -14 -22 -23 -22 -107 0 -51 5 -99 10 -107 14 -23
172 -28 205 -6 24 16 25 21 25 111 0 117 -7 125 -120 125 -52 0 -82 -5 -98
-16z"/>
<path d="M3044 2650 c-27 -11 -40 -84 -29 -166 8 -66 22 -74 123 -74 103 0
112 10 112 125 0 86 -2 95 -22 109 -25 18 -147 21 -184 6z"/>
</g>
</svg>
