<svg xmlns="http://www.w3.org/2000/svg" xmlns:xlink="http://www.w3.org/1999/xlink" width="854" zoomAndPan="magnify" viewBox="0 0 640.5 358.49999" height="478" preserveAspectRatio="xMidYMid meet" version="1.0"><defs><filter x="0%" y="0%" width="100%" height="100%" id="dbc07803dc"><feColorMatrix values="0 0 0 0 1 0 0 0 0 1 0 0 0 0 1 0 0 0 1 0" color-interpolation-filters="sRGB"/></filter><clipPath id="965ab7afea"><path d="M 0.195312 0 L 639.804688 0 L 639.804688 358 L 0.195312 358 Z M 0.195312 0 " clip-rule="nonzero"/></clipPath><mask id="215cbbde49"><g filter="url(#dbc07803dc)"><rect x="-64.05" width="768.6" fill="#000000" y="-35.849999" height="430.199987" fill-opacity="0.19"/></g></mask><clipPath id="aa9ec0e874"><path d="M 0.195312 1 L 639.804688 1 L 639.804688 358 L 0.195312 358 Z M 0.195312 1 " clip-rule="nonzero"/></clipPath><clipPath id="6c2f21547e"><rect x="0" width="640" y="0" height="358"/></clipPath></defs><g clip-path="url(#965ab7afea)"><path fill="#ffffff" d="M 0.195312 0 L 639.804688 0 L 639.804688 358 L 0.195312 358 Z M 0.195312 0 " fill-opacity="1" fill-rule="nonzero"/><path fill="#ffffff" d="M 0.195312 0 L 639.804688 0 L 639.804688 358 L 0.195312 358 Z M 0.195312 0 " fill-opacity="1" fill-rule="nonzero"/><g mask="url(#215cbbde49)"><g><g clip-path="url(#6c2f21547e)"><g clip-path="url(#aa9ec0e874)"><path fill="#000000" d="M 0.941406 179.75 L 0.941406 358 L 312.472656 358 C 512.214844 358 624.300781 357.699219 625.050781 357.25 C 625.949219 356.652344 625.949219 356.503906 625.125 356.503906 C 624.449219 356.503906 624.601562 356.054688 625.722656 355.078125 C 626.921875 354.03125 627.074219 353.507812 626.398438 353.28125 C 625.800781 353.058594 625.949219 352.832031 626.773438 352.832031 C 627.523438 352.757812 627.972656 352.457031 627.746094 352.082031 C 627.449219 351.710938 627.746094 351.183594 628.195312 351.035156 C 628.945312 350.734375 628.945312 350.585938 628.121094 350.585938 C 627.597656 350.511719 628.121094 349.613281 629.46875 348.339844 C 631.042969 346.917969 631.492188 346.015625 630.894531 345.792969 C 630.144531 345.492188 630.144531 345.34375 630.894531 345.34375 C 631.417969 345.269531 631.644531 344.894531 631.417969 344.519531 C 631.195312 344.070312 631.570312 343.769531 632.316406 343.769531 C 633.441406 343.769531 633.515625 343.621094 632.542969 343.023438 C 631.570312 342.421875 631.644531 342.273438 632.765625 342.273438 C 633.515625 342.273438 633.890625 341.898438 633.667969 341.523438 C 633.441406 341.074219 633.667969 340.773438 634.191406 340.773438 C 634.863281 340.773438 634.863281 340.550781 634.039062 340.027344 C 633.140625 339.425781 633.292969 339.277344 634.789062 339.277344 C 636.289062 339.277344 636.4375 339.128906 635.539062 338.527344 C 634.566406 337.855469 634.566406 337.777344 635.539062 337.777344 C 636.511719 337.777344 636.511719 337.703125 635.539062 337.03125 C 634.640625 336.429688 634.789062 336.28125 636.289062 336.28125 C 637.785156 336.28125 637.9375 336.132812 637.039062 335.53125 C 636.214844 335.007812 636.214844 334.78125 636.886719 334.78125 C 637.414062 334.78125 637.636719 334.484375 637.414062 334.035156 C 637.1875 333.660156 637.5625 333.285156 638.3125 333.210938 C 639.0625 333.210938 639.285156 332.984375 638.761719 332.761719 C 638.011719 332.535156 638.085938 332.160156 638.910156 331.335938 C 639.808594 330.4375 639.960938 325.046875 640.035156 297.035156 L 640.035156 263.855469 L 635.464844 263.40625 C 623.101562 262.058594 605.945312 253.519531 588.789062 240.113281 C 586.316406 238.242188 584.066406 236.667969 583.691406 236.667969 C 583.394531 236.667969 582.867188 235.769531 582.644531 234.648438 C 582.121094 232.550781 574.925781 223.414062 569.980469 218.46875 C 567.585938 216.074219 567.359375 215.472656 567.359375 211.503906 C 567.359375 205.886719 565.9375 207.011719 565.113281 213.226562 C 564.585938 217.570312 564.585938 217.570312 564.4375 214.125 C 564.210938 206.261719 568.410156 199.074219 574.777344 196.449219 C 579.121094 194.578125 588.5625 194.878906 593.957031 196.976562 C 602.574219 200.34375 613.8125 208.132812 608.34375 206.9375 C 606.769531 206.636719 606.769531 206.636719 608.117188 207.761719 C 608.867188 208.359375 609.839844 208.734375 610.289062 208.433594 C 610.738281 208.210938 610.816406 208.359375 610.589844 208.734375 C 610.289062 209.183594 613.363281 212.328125 617.40625 215.773438 C 621.378906 219.21875 628.121094 225.210938 632.390625 229.03125 L 640.035156 236.070312 L 640.035156 1.496094 L 0.941406 1.496094 Z M 423.058594 57.296875 C 425.90625 61.863281 427.179688 70.925781 425.828125 77.367188 C 424.554688 83.359375 422.007812 88.601562 420.808594 87.554688 C 418.113281 85.382812 415.867188 57.21875 418.113281 54.449219 C 419.535156 52.800781 420.585938 53.402344 423.058594 57.296875 Z M 506.746094 60.289062 C 542.636719 62.3125 553.949219 64.183594 564.363281 69.726562 C 577.921875 76.992188 584.667969 86.730469 585.941406 100.960938 L 586.464844 106.578125 L 589.835938 107.773438 C 591.933594 108.523438 594.929688 110.621094 597.851562 113.464844 C 601.523438 117.0625 602.648438 118.785156 603.621094 122.003906 C 605.121094 127.171875 605.121094 129.496094 603.621094 133.3125 C 602.722656 135.484375 601.597656 136.757812 599.5 137.808594 C 595.90625 139.679688 594.707031 139.679688 593.359375 137.808594 C 592.757812 136.984375 592.085938 136.535156 591.859375 136.835938 C 591.558594 137.058594 591.335938 136.910156 591.335938 136.535156 C 591.335938 136.085938 588.863281 135.335938 585.941406 134.8125 C 582.945312 134.363281 579.121094 133.6875 577.550781 133.3125 C 574.175781 132.566406 573.429688 132.863281 573.203125 134.664062 C 573.128906 135.335938 572.902344 133.914062 572.605469 131.441406 C 572.15625 127.171875 572.078125 127.246094 572.003906 133.839844 C 571.855469 139.230469 572.230469 142 573.652344 146.570312 C 577.773438 160.125 577.847656 161.25 575.601562 165.820312 C 574.777344 167.542969 572.378906 170.761719 570.355469 173.007812 C 566.609375 177.054688 566.460938 176.230469 570.058594 170.988281 C 571.03125 169.488281 571.855469 167.992188 571.855469 167.617188 C 571.855469 166.867188 564.664062 170.386719 563.988281 171.511719 C 563.3125 172.632812 557.769531 172.410156 555.820312 171.136719 C 554.847656 170.460938 551.625 169.265625 548.628906 168.441406 C 543.308594 167.015625 538.890625 165.144531 538.140625 164.019531 C 537.914062 163.722656 536.566406 162.746094 535.144531 161.847656 C 532.746094 160.425781 531.394531 160.277344 520.53125 160.277344 C 508.171875 160.277344 467.414062 157.878906 456.847656 156.53125 C 437.667969 154.136719 433.023438 150.988281 430.925781 138.929688 C 429.5 130.46875 430.773438 111.371094 434.070312 93.992188 C 435.34375 87.101562 435.496094 85.304688 434.746094 83.058594 C 434.222656 81.5625 433.921875 78.941406 434.144531 77.140625 L 434.445312 73.996094 L 432.648438 76.09375 C 431.074219 78.042969 431 78.042969 431.75 76.46875 C 433.472656 73.023438 439.539062 67.332031 444.035156 64.785156 C 448.15625 62.539062 454.449219 60.441406 459.46875 59.691406 C 464.117188 58.941406 488.765625 59.242188 506.746094 60.289062 Z M 412.941406 70.550781 C 412.867188 78.265625 414.140625 85.753906 416.316406 91 C 416.988281 92.496094 417.140625 93.46875 416.765625 93.246094 C 414.816406 92.046875 411.21875 74.445312 411.894531 69.652344 C 412.042969 68.605469 412.195312 66.65625 412.195312 65.308594 C 412.269531 64.035156 412.417969 62.914062 412.644531 62.914062 C 412.792969 62.914062 412.941406 66.359375 412.941406 70.550781 Z M 620.105469 65.832031 C 621.230469 67.03125 621.304688 67.707031 620.554688 70.550781 C 618.605469 77.890625 610.515625 89.351562 599.949219 99.910156 C 593.582031 106.277344 591.710938 106.949219 591.109375 103.132812 C 590.136719 96.464844 597.027344 81.5625 605.046875 72.949219 C 612.464844 65.007812 617.332031 62.6875 620.105469 65.832031 Z M 430.625 81.785156 C 429.726562 88.078125 427.105469 100.734375 426.355469 102.757812 C 425.90625 103.878906 425.304688 104.628906 424.929688 104.40625 C 423.730469 103.730469 424.183594 96.316406 425.753906 90.398438 C 427.179688 85.082031 429.875 78.640625 430.773438 78.640625 C 431 78.640625 430.925781 80.0625 430.625 81.785156 Z M 407.773438 105.527344 C 407.398438 106.351562 406.648438 107.925781 406.199219 109.046875 C 405.675781 110.621094 405.300781 110.921875 404.851562 110.171875 C 404.253906 109.273438 403.503906 111.519531 402.15625 118.710938 C 401.78125 120.804688 402.527344 126.347656 403.652344 129.945312 C 403.878906 130.769531 403.503906 130.394531 402.828125 129.195312 C 400.132812 124.625 401.929688 107.25 404.925781 109.046875 C 405.375 109.347656 405.601562 109.121094 405.375 108.523438 C 405.152344 107.925781 405.675781 106.726562 406.5 105.753906 C 408.371094 103.730469 408.824219 103.65625 407.773438 105.527344 Z M 419.761719 109.648438 C 419.238281 112.492188 418.5625 114.367188 418.113281 114.140625 C 417.289062 113.617188 417.964844 107.476562 419.160156 105.378906 C 420.4375 102.90625 420.734375 104.703125 419.761719 109.648438 Z M 415.414062 140.503906 C 417.363281 141.476562 419.085938 142.300781 419.238281 142.300781 C 419.460938 142.300781 419.984375 140.804688 420.4375 139.007812 C 420.886719 137.132812 421.558594 135.484375 421.933594 135.261719 C 422.234375 135.035156 422.757812 138.78125 422.984375 143.648438 C 423.507812 154.660156 424.929688 158.703125 431.222656 166.71875 C 438.492188 175.855469 445.609375 179.824219 457.371094 181.320312 C 460.59375 181.695312 466.363281 182.671875 470.109375 183.492188 C 473.929688 184.316406 478.425781 184.992188 480.074219 185.066406 C 482.769531 185.214844 482.695312 185.292969 478.949219 185.742188 L 474.828125 186.265625 L 479.324219 186.488281 C 481.796875 186.566406 482.996094 186.863281 481.949219 187.015625 C 478.726562 187.613281 457.746094 185.214844 458.347656 184.316406 C 458.496094 184.019531 457.597656 183.945312 456.324219 184.09375 C 454.976562 184.316406 454.226562 184.167969 454.449219 183.71875 C 454.675781 183.34375 453.703125 182.96875 452.277344 182.96875 C 450.855469 182.894531 446.808594 181.398438 443.136719 179.597656 C 429.5 172.859375 420.585938 159.976562 420.511719 147.09375 C 420.511719 144.023438 420.4375 143.949219 416.316406 142.226562 C 411.746094 140.429688 405.527344 135.113281 405.527344 133.089844 C 405.527344 132.265625 406.574219 133.015625 408.671875 135.261719 C 410.394531 137.132812 413.46875 139.53125 415.414062 140.503906 Z M 81.109375 151.886719 C 83.808594 153.910156 84.554688 153.910156 85.082031 152.113281 C 85.378906 150.914062 86.429688 150.613281 92.347656 150.164062 C 96.167969 149.867188 104.109375 149.867188 110.03125 150.164062 L 120.742188 150.691406 L 121.269531 153.160156 C 121.492188 154.507812 121.34375 156.308594 120.894531 157.207031 C 120.144531 158.554688 119.320312 158.777344 115.347656 158.777344 C 108.230469 158.777344 107.707031 159.378906 107.707031 168.140625 C 107.707031 176.902344 108.230469 177.503906 115.347656 177.503906 C 119.320312 177.503906 120.144531 177.726562 120.894531 179.074219 C 121.34375 179.972656 121.492188 181.769531 121.269531 183.121094 L 120.742188 185.589844 L 109.953125 186.117188 C 97.667969 186.714844 84.855469 186.039062 84.855469 184.765625 C 84.855469 184.167969 84.554688 184.242188 83.957031 184.84375 C 83.433594 185.367188 81.335938 185.742188 79.160156 185.742188 L 75.339844 185.742188 L 74.816406 180.347656 C 74.589844 177.425781 73.992188 174.582031 73.542969 173.980469 C 72.570312 172.859375 59.683594 172.632812 57.957031 173.683594 C 57.210938 174.132812 56.683594 176.304688 56.460938 179.898438 L 56.011719 185.367188 L 47.769531 185.367188 L 47.542969 172.257812 C 47.320312 157.730469 47.542969 155.183594 49.566406 152.710938 C 51.367188 150.464844 55.710938 149.867188 68.597656 150.089844 C 77.8125 150.242188 79.085938 150.464844 81.109375 151.886719 Z M 171.992188 150.316406 C 176.5625 150.691406 177.234375 150.988281 177.835938 152.636719 L 178.507812 154.433594 L 181.355469 152.335938 L 184.128906 150.164062 L 210.652344 150.164062 L 215.894531 155.257812 L 218.519531 152.9375 C 220.765625 150.988281 221.890625 150.613281 226.910156 150.164062 C 230.132812 149.867188 236.273438 149.792969 240.546875 150.015625 C 246.914062 150.316406 248.789062 150.691406 250.511719 151.964844 C 253.132812 153.910156 253.957031 153.910156 254.554688 152.039062 C 255.003906 150.691406 255.605469 150.464844 258.902344 150.691406 L 262.796875 150.914062 L 263.171875 163.046875 C 263.472656 171.511719 263.847656 175.480469 264.519531 176.15625 C 265.195312 176.828125 269.015625 177.203125 277.632812 177.351562 C 287.449219 177.503906 289.917969 177.800781 290.667969 178.699219 C 291.417969 179.75 291.566406 179.75 292.167969 178.625 C 292.765625 177.652344 294.941406 177.351562 304.828125 176.902344 C 314.644531 176.453125 316.742188 176.15625 316.742188 175.253906 C 316.742188 173.757812 313.671875 173.234375 304.828125 173.082031 C 297.488281 173.007812 297.488281 173.007812 294.941406 170.460938 C 292.46875 167.992188 292.390625 167.765625 292.390625 161.476562 C 292.390625 155.484375 292.542969 154.882812 294.488281 152.785156 C 296.4375 150.613281 296.738281 150.539062 304.753906 150.164062 C 309.324219 149.941406 316.367188 150.015625 320.488281 150.316406 L 327.980469 150.914062 L 328.207031 153.910156 C 328.28125 155.558594 328.128906 157.28125 327.757812 157.804688 C 327.382812 158.328125 323.035156 158.851562 315.394531 159.226562 C 308.875 159.527344 303.40625 160.050781 303.179688 160.425781 C 302.957031 160.800781 303.179688 161.550781 303.628906 162.148438 C 304.304688 162.972656 306.253906 163.273438 310.824219 163.273438 C 319.664062 163.273438 324.160156 164.394531 326.480469 167.167969 C 328.128906 169.113281 328.355469 170.085938 328.355469 174.730469 C 328.355469 181.023438 326.707031 184.617188 323.335938 185.515625 C 322.210938 185.890625 314.871094 186.117188 307.152344 186.117188 C 294.265625 186.117188 292.992188 185.964844 292.242188 184.765625 C 291.644531 183.570312 291.417969 183.570312 290.667969 184.46875 C 289.996094 185.292969 286.996094 185.667969 277.78125 185.964844 C 262.722656 186.414062 258.527344 185.890625 255.828125 183.269531 L 253.882812 181.246094 L 251.785156 183.269531 C 249.3125 185.589844 245.191406 186.339844 234.703125 186.414062 C 224.738281 186.414062 220.839844 185.667969 218.21875 183.121094 L 216.046875 181.023438 L 213.421875 183.269531 C 211.324219 185.214844 209.976562 185.667969 205.480469 186.117188 C 202.558594 186.414062 196.417969 186.414062 191.847656 186.117188 C 183.980469 185.589844 183.304688 185.441406 181.355469 183.492188 C 179.558594 181.621094 179.257812 180.796875 179.257812 176.902344 C 179.257812 174.507812 179.035156 169.414062 178.808594 165.667969 L 178.285156 158.777344 L 172.964844 158.777344 C 164.347656 158.777344 164.273438 158.851562 164.273438 172.257812 C 164.273438 178.328125 164.050781 183.867188 163.824219 184.542969 C 163.449219 185.441406 162.324219 185.742188 159.402344 185.742188 L 155.433594 185.742188 L 155.132812 173.382812 C 154.984375 164.769531 154.609375 160.800781 153.933594 160.125 C 153.410156 159.601562 150.5625 159.003906 147.566406 158.777344 L 142.171875 158.402344 L 141.945312 154.507812 L 141.722656 150.613281 L 147.566406 150.316406 C 159.328125 149.867188 167.046875 149.792969 171.992188 150.316406 Z M 363.945312 162.898438 C 366.417969 163.421875 375.707031 166.566406 384.546875 169.863281 C 393.386719 173.082031 401.628906 176.003906 402.828125 176.304688 C 404.027344 176.605469 405.902344 177.800781 407.097656 179 C 408.296875 180.199219 409.273438 181.097656 409.273438 181.023438 C 409.273438 180.949219 408.972656 179.75 408.523438 178.328125 C 407.847656 176.003906 407.921875 175.855469 409.496094 176.304688 C 412.644531 177.054688 424.40625 183.792969 427.628906 186.640625 C 431.222656 189.785156 434.746094 196.078125 434.746094 199.371094 C 434.746094 204.988281 428.675781 206.261719 412.492188 204.015625 C 409.871094 203.640625 408.523438 203.941406 404.777344 205.886719 C 399.605469 208.585938 398.78125 208.734375 400.582031 206.785156 C 401.855469 205.363281 401.628906 205.140625 390.390625 199.746094 C 372.410156 190.984375 354.128906 177.800781 348.734375 169.636719 C 347.535156 167.839844 346.335938 166.566406 346.039062 166.867188 C 345.738281 167.09375 345.738281 166.792969 345.960938 166.117188 C 346.710938 164.171875 352.332031 161.773438 356.078125 161.773438 C 357.949219 161.773438 361.472656 162.296875 363.945312 162.898438 Z M 345.363281 173.90625 C 345.136719 174.507812 344.914062 174.28125 344.914062 173.457031 C 344.839844 172.632812 345.0625 172.183594 345.289062 172.484375 C 345.511719 172.710938 345.585938 173.382812 345.363281 173.90625 Z M 356.824219 191.359375 C 359.296875 194.429688 363.34375 198.472656 365.816406 200.421875 C 368.289062 202.367188 370.3125 204.089844 370.3125 204.238281 C 370.3125 205.0625 363.417969 199.445312 359.671875 195.628906 C 355.253906 191.132812 347.085938 180.199219 347.085938 178.777344 C 347.085938 178.328125 348.285156 179.675781 349.707031 181.847656 C 351.132812 184.019531 354.355469 188.289062 356.824219 191.359375 Z M 490.039062 187.761719 C 488.839844 187.914062 487.042969 187.914062 485.917969 187.761719 C 484.71875 187.613281 485.695312 187.464844 487.941406 187.464844 C 490.1875 187.464844 491.164062 187.613281 490.039062 187.761719 Z M 500.527344 188.511719 C 499.777344 188.660156 498.582031 188.660156 497.90625 188.511719 C 497.15625 188.289062 497.757812 188.136719 499.179688 188.136719 C 500.601562 188.136719 501.203125 188.289062 500.527344 188.511719 Z M 544.359375 189.261719 C 543.832031 189.410156 542.785156 189.410156 542.109375 189.261719 C 541.359375 189.035156 541.8125 188.886719 543.007812 188.886719 C 544.28125 188.886719 544.808594 189.035156 544.359375 189.261719 Z M 539.113281 190.011719 C 538.589844 190.160156 537.691406 190.160156 537.242188 190.011719 C 536.714844 189.785156 537.089844 189.636719 538.140625 189.636719 C 539.1875 189.636719 539.5625 189.785156 539.113281 190.011719 Z M 524.652344 191.957031 C 533.644531 193.679688 540.535156 195.550781 543.984375 197.199219 C 548.480469 199.296875 554.171875 204.613281 555.972656 208.359375 C 557.992188 212.777344 559.269531 220.941406 558.96875 227.683594 L 558.742188 233.300781 L 555.746094 233.824219 C 554.097656 234.125 545.480469 234.347656 536.640625 234.273438 C 527.800781 234.199219 518.882812 234.199219 516.9375 234.273438 C 510.417969 234.347656 505.773438 238.691406 504.875 245.433594 C 503.898438 252.25 503.601562 253.148438 502.175781 253.148438 C 501.425781 253.148438 500.527344 252.472656 500.304688 251.648438 C 500.078125 250.824219 499.480469 250.152344 499.03125 250.152344 C 498.65625 250.152344 498.429688 249.625 498.730469 249.027344 C 498.953125 248.429688 498.355469 247.15625 497.304688 246.105469 C 496.183594 244.984375 495.734375 244.007812 496.183594 243.785156 C 496.632812 243.484375 496.707031 242.960938 496.480469 242.511719 C 496.183594 241.988281 496.332031 241.914062 496.855469 242.210938 C 497.304688 242.511719 497.53125 243.109375 497.304688 243.484375 C 497.082031 243.859375 497.382812 243.933594 498.054688 243.636719 C 499.253906 243.1875 499.328125 242.511719 498.207031 237.570312 C 498.054688 236.894531 498.429688 235.472656 499.105469 234.421875 C 500.226562 232.699219 500.226562 232.625 498.878906 233.148438 C 498.054688 233.449219 495.957031 234.046875 494.160156 234.421875 C 484.71875 236.59375 475.953125 228.878906 475.953125 218.546875 C 475.953125 214.875 475.804688 214.351562 474.605469 214.726562 C 473.707031 214.949219 472.730469 214.351562 471.757812 213.003906 C 470.109375 210.605469 464.117188 204.765625 461.195312 202.515625 C 459.996094 201.695312 456.996094 200.421875 454.375 199.671875 L 449.582031 198.398438 L 445.011719 202.742188 C 439.390625 207.984375 438.566406 209.40625 437.667969 214.875 C 437.292969 217.195312 436.46875 221.390625 435.871094 224.3125 C 434.445312 231.128906 434.445312 236.96875 435.792969 238.09375 C 436.394531 238.617188 437.070312 241.3125 437.367188 244.757812 C 438.117188 253.519531 439.839844 261.535156 442.386719 268.726562 C 447.855469 284.304688 459.769531 303.550781 465.238281 305.648438 C 466.214844 306.023438 466.960938 306.773438 466.960938 307.371094 C 466.960938 308.71875 475.128906 313.960938 481.046875 316.359375 C 487.117188 318.753906 492.585938 319.804688 500.226562 319.878906 C 505.699219 319.953125 505.996094 320.027344 502.925781 320.554688 C 497.757812 321.527344 487.265625 320.105469 480.222656 317.558594 C 473.480469 315.085938 464.191406 309.46875 464.492188 307.96875 C 464.640625 307.445312 464.191406 307.070312 463.589844 307.070312 C 460.820312 307.070312 452.425781 297.335938 446.660156 287.523438 C 440.441406 276.890625 436.09375 262.734375 434.820312 248.878906 C 434.371094 244.160156 433.695312 240.566406 432.949219 239.515625 C 431.300781 237.195312 431.449219 230.453125 433.171875 221.914062 C 437.070312 203.042969 447.035156 193.605469 465.839844 191.058594 C 473.929688 189.933594 517.835938 190.609375 524.652344 191.957031 Z M 380.953125 210.308594 C 380.277344 210.53125 373.308594 206.863281 373.308594 206.261719 C 373.308594 206.113281 375.183594 206.863281 377.503906 207.984375 C 379.753906 209.109375 381.324219 210.15625 380.953125 210.308594 Z M 414.292969 217.644531 C 414.066406 217.871094 413.394531 217.945312 412.867188 217.722656 C 412.269531 217.496094 412.492188 217.273438 413.316406 217.273438 C 414.140625 217.195312 414.589844 217.421875 414.292969 217.644531 Z M 572.679688 235.695312 C 574.027344 237.71875 577.847656 242.285156 581.144531 245.957031 C 587.8125 253.371094 586.539062 253.597656 579.648438 246.257812 C 574.476562 240.714844 568.558594 232.175781 569.832031 232.175781 C 569.980469 232.175781 571.253906 233.75 572.679688 235.695312 Z M 558.367188 239.664062 C 559.34375 241.164062 559.269531 250 558.367188 256.144531 C 556.496094 268.277344 553.273438 277.039062 548.628906 282.28125 C 547.804688 283.253906 547.128906 284.304688 547.128906 284.679688 C 547.128906 285.949219 539.261719 292.839844 537.316406 293.214844 C 536.191406 293.515625 534.84375 294.191406 534.394531 294.714844 C 533.195312 296.210938 525.925781 298.234375 520.53125 298.609375 C 513.863281 299.058594 512.816406 299.058594 506.671875 298.535156 C 497.457031 297.785156 496.480469 297.636719 494.609375 296.363281 C 493.636719 295.613281 492.0625 295.089844 491.089844 295.089844 C 490.113281 295.089844 489.589844 294.789062 489.8125 294.339844 C 490.039062 293.890625 489.890625 293.589844 489.363281 293.589844 C 488.839844 293.589844 487.792969 292.992188 486.96875 292.242188 C 485.84375 291.34375 485.617188 291.269531 485.992188 292.09375 C 486.292969 292.691406 485.917969 292.390625 485.019531 291.34375 C 483.070312 288.945312 482.546875 286.851562 483.820312 286.851562 C 484.417969 286.851562 485.09375 287.222656 485.320312 287.671875 C 485.992188 288.648438 489.363281 287.898438 494.382812 285.726562 C 499.628906 283.40625 502.550781 278.6875 502.25 273.070312 C 501.800781 264.230469 501.953125 260.335938 502.777344 260.039062 C 504.125 259.589844 503.824219 256.816406 502.402344 255.695312 C 501.652344 255.167969 501.351562 254.496094 501.726562 254.121094 C 502.101562 253.820312 502.550781 253.972656 502.699219 254.421875 C 503.300781 256.066406 504.425781 255.46875 504.425781 253.519531 C 504.425781 251.199219 507.046875 244.308594 508.769531 242.0625 C 511.46875 238.542969 514.390625 238.167969 536.867188 238.390625 C 554.398438 238.542969 557.769531 238.691406 558.367188 239.664062 Z M 472.058594 242.210938 C 474.753906 243.636719 477.226562 248.726562 478.574219 255.542969 C 479.625 261.308594 480.375 283.480469 479.476562 284.378906 C 479.175781 284.601562 478.199219 284.152344 477.226562 283.253906 C 476.253906 282.355469 475.054688 281.605469 474.605469 281.605469 C 474.082031 281.605469 473.78125 281.308594 473.929688 281.007812 C 474.003906 280.632812 472.957031 279.285156 471.683594 277.9375 C 470.335938 276.589844 469.210938 275.015625 469.210938 274.417969 C 469.210938 273.742188 468.386719 272.171875 467.335938 270.820312 C 466.289062 269.472656 465.464844 267.675781 465.464844 266.777344 C 465.464844 265.953125 465.089844 265.128906 464.714844 264.980469 C 464.265625 264.832031 463.742188 263.40625 463.441406 261.761719 C 463.214844 260.113281 462.617188 258.238281 462.09375 257.640625 C 461.042969 256.21875 459.246094 250.152344 459.769531 249.625 C 459.996094 249.402344 459.84375 248.578125 459.394531 247.753906 C 458.273438 245.730469 459.097656 243.035156 461.117188 242.0625 C 463.589844 240.9375 469.660156 241.015625 472.058594 242.210938 Z M 605.046875 260.1875 C 608.042969 261.535156 612.386719 263.332031 614.710938 264.082031 C 617.109375 264.753906 618.90625 265.503906 618.757812 265.65625 C 618.230469 266.179688 609.839844 263.558594 604.972656 261.308594 C 599.949219 259.0625 589.835938 252.546875 589.835938 251.648438 C 589.835938 251.273438 592.007812 252.472656 594.707031 254.34375 C 597.402344 256.144531 602.046875 258.765625 605.046875 260.1875 Z M 624.300781 266.628906 C 625.800781 267.078125 625.875 267.226562 624.675781 267.226562 C 623.851562 267.226562 622.503906 267.003906 621.679688 266.628906 C 619.804688 265.804688 621.753906 265.804688 624.300781 266.628906 Z M 528.023438 307.070312 C 526.824219 307.371094 516.863281 307.597656 505.921875 307.597656 C 494.160156 307.597656 488.539062 307.371094 492.0625 307.070312 C 500.679688 306.398438 530.722656 306.398438 528.023438 307.070312 Z M 509.144531 319.578125 C 508.621094 319.730469 507.722656 319.730469 507.269531 319.578125 C 506.746094 319.355469 507.121094 319.203125 508.171875 319.203125 C 509.21875 319.203125 509.59375 319.355469 509.144531 319.578125 Z M 509.144531 319.578125 " fill-opacity="1" fill-rule="nonzero"/></g><path fill="#000000" d="M 451.230469 76.691406 C 444.261719 78.566406 439.914062 82.683594 437.367188 89.875 C 434.222656 98.414062 431.222656 123.953125 431.972656 135.035156 C 432.273438 139.230469 432.949219 142 434.296875 144.921875 C 436.394531 149.191406 438.265625 150.765625 443.210938 152.488281 C 450.328125 155.035156 484.871094 157.582031 511.917969 157.65625 L 530.273438 157.65625 L 534.769531 155.410156 C 540.164062 152.710938 541.886719 150.015625 543.683594 141.703125 C 546.90625 126.648438 548.929688 95.867188 547.054688 90.847656 C 545.257812 85.980469 539.9375 82.386719 531.996094 80.511719 C 516.5625 77.066406 459.921875 74.296875 451.230469 76.691406 Z M 451.976562 86.503906 C 451.976562 87.253906 451.152344 87.628906 449.355469 87.628906 C 446.957031 87.628906 446.734375 87.777344 446.734375 89.875 C 446.734375 91.449219 446.359375 92.121094 445.535156 92.121094 C 444.5625 92.121094 444.410156 91.597656 444.785156 89.800781 C 445.011719 88.527344 445.234375 86.953125 445.234375 86.429688 C 445.234375 85.679688 446.210938 85.382812 448.605469 85.382812 C 451.078125 85.382812 451.976562 85.679688 451.976562 86.503906 Z M 540.910156 90.921875 C 540.910156 91 540.835938 92.570312 540.613281 94.519531 C 540.238281 97.515625 539.9375 98.113281 538.664062 98.113281 C 537.390625 98.113281 537.242188 97.738281 537.613281 95.492188 C 538.066406 92.945312 537.988281 92.871094 535.441406 92.871094 C 533.417969 92.871094 532.894531 92.570312 532.894531 91.371094 C 532.894531 90.097656 533.269531 90.023438 536.867188 90.398438 C 538.964844 90.625 540.835938 90.847656 540.910156 90.921875 Z M 473.332031 99.3125 C 480.449219 102.683594 483.144531 114.515625 478.800781 123.128906 C 475.730469 129.34375 471.382812 132.566406 465.988281 132.714844 C 452.503906 132.941406 447.78125 112.566406 458.796875 102.082031 C 460.21875 100.734375 462.167969 99.386719 463.214844 98.9375 C 466.0625 97.8125 470.558594 97.964844 473.332031 99.3125 Z M 514.914062 101.109375 C 518.136719 102.007812 521.882812 105.675781 523.453125 109.496094 C 525.253906 113.765625 524.953125 120.957031 522.855469 125.449219 C 517.386719 137.285156 503.675781 138.78125 497.832031 128.222656 C 492.8125 119.160156 496.707031 105.753906 505.472656 101.78125 C 508.996094 100.210938 511.167969 100.058594 514.914062 101.109375 Z M 441.488281 139.304688 C 441.488281 141.328125 441.714844 141.550781 443.738281 141.550781 C 445.234375 141.550781 445.984375 141.925781 445.984375 142.675781 C 445.984375 143.5 445.085938 143.800781 442.613281 143.800781 C 439.617188 143.800781 439.242188 143.648438 439.242188 142.078125 C 439.242188 139.605469 440.066406 137.058594 440.816406 137.058594 C 441.1875 137.058594 441.488281 138.03125 441.488281 139.304688 Z M 534.992188 145.445312 L 534.769531 148.667969 L 530.871094 148.890625 C 527.726562 149.042969 526.902344 148.890625 526.902344 147.992188 C 526.902344 147.246094 527.800781 146.796875 529.75 146.644531 C 532.144531 146.421875 532.519531 146.121094 532.746094 144.324219 C 532.894531 143.125 533.417969 142.300781 534.09375 142.300781 C 534.992188 142.300781 535.144531 143.050781 534.992188 145.445312 Z M 534.992188 145.445312 " fill-opacity="1" fill-rule="nonzero"/><path fill="#000000" d="M 462.691406 184.765625 C 463.367188 184.917969 464.414062 184.917969 464.941406 184.765625 C 465.390625 184.542969 464.863281 184.394531 463.589844 184.394531 C 462.390625 184.394531 461.941406 184.542969 462.691406 184.765625 Z M 462.691406 184.765625 " fill-opacity="1" fill-rule="nonzero"/><path fill="#000000" d="M 469.0625 185.515625 C 469.960938 185.667969 471.457031 185.667969 472.433594 185.515625 C 473.332031 185.367188 472.582031 185.214844 470.707031 185.214844 C 468.835938 185.214844 468.085938 185.367188 469.0625 185.515625 Z M 469.0625 185.515625 " fill-opacity="1" fill-rule="nonzero"/><path fill="#000000" d="M 84.40625 159.753906 C 84.257812 160.277344 84.179688 164.394531 84.257812 168.964844 L 84.480469 177.128906 L 89.652344 177.351562 C 93.320312 177.503906 95.269531 177.277344 96.542969 176.378906 C 98.265625 175.332031 98.34375 174.804688 98.34375 168.140625 C 98.34375 161.699219 98.191406 161.027344 96.695312 159.976562 C 94.519531 158.402344 85.003906 158.328125 84.40625 159.753906 Z M 84.40625 159.753906 " fill-opacity="1" fill-rule="nonzero"/><path fill="#000000" d="M 58.859375 160.726562 C 58.183594 162.597656 60.054688 163.273438 65.824219 163.273438 C 69.796875 163.273438 71.445312 162.972656 72.195312 162.074219 C 73.691406 160.277344 71.820312 159.527344 65.152344 159.527344 C 60.507812 159.527344 59.230469 159.753906 58.859375 160.726562 Z M 58.859375 160.726562 " fill-opacity="1" fill-rule="nonzero"/><path fill="#000000" d="M 189.898438 159.976562 C 188.398438 161.027344 188.25 161.699219 188.25 167.992188 C 188.25 171.808594 188.625 175.40625 189 176.003906 C 190.046875 177.726562 201.886719 178.101562 204.359375 176.453125 C 206.15625 175.253906 206.230469 174.882812 206.230469 168.140625 C 206.230469 159.378906 205.707031 158.777344 197.238281 158.777344 C 193.34375 158.777344 191.097656 159.152344 189.898438 159.976562 Z M 189.898438 159.976562 " fill-opacity="1" fill-rule="nonzero"/><path fill="#000000" d="M 228.257812 159.527344 C 226.234375 160.351562 225.261719 165.820312 226.085938 171.960938 C 226.683594 176.902344 227.734375 177.503906 235.300781 177.503906 C 243.019531 177.503906 243.691406 176.753906 243.691406 168.140625 C 243.691406 161.699219 243.542969 161.027344 242.042969 159.976562 C 240.171875 158.628906 231.03125 158.402344 228.257812 159.527344 Z M 228.257812 159.527344 " fill-opacity="1" fill-rule="nonzero"/></g></g></g></g></svg>